<svg xmlns="http://www.w3.org/2000/svg" viewBox="0 0 23 20.46"><defs><style>.cls-1{fill:#61dafb;}.cls-2{fill:#3178c6;}.cls-3{fill:#fff;fill-rule:evenodd;}</style></defs><g id="Capa_2" data-name="Capa 2"><g id="Layer_1" data-name="Layer 1"><path class="cls-1" d="M18.91,6.63h0l-.74-.23c0-.17.08-.34.11-.51.57-2.72.2-4.91-1.05-5.63S14.07.29,12.08,2l-.57.53-.38-.35C9.05.34,7-.43,5.72.29S4.17,3,4.67,5.62c0,.26.11.51.17.77L4,6.65c-2.43.85-4,2.18-4,3.56s1.67,2.86,4.21,3.72l.62.2c-.07.27-.13.54-.18.82-.48,2.53-.11,4.55,1.09,5.23s3.3,0,5.32-1.78l.48-.44.62.57c2,1.68,3.89,2.36,5.08,1.67s1.64-2.88,1.12-5.51c0-.2-.09-.4-.14-.61l.43-.14c2.63-.87,4.35-2.28,4.35-3.73S21.39,7.49,18.91,6.63ZM12.73,2.76c1.7-1.48,3.28-2.07,4-1.65h0c.77.45,1.07,2.24.58,4.59,0,.15-.06.3-.1.45a22.68,22.68,0,0,0-3.08-.48A23.74,23.74,0,0,0,12.2,3.24C12.37,3.07,12.55,2.91,12.73,2.76ZM6.79,11.39c.21.4.43.8.65,1.19s.48.79.73,1.18a18.72,18.72,0,0,1-2.12-.34C6.25,12.77,6.5,12.08,6.79,11.39Zm0-2.31a21.18,21.18,0,0,1-.73-2c.66-.15,1.36-.27,2.08-.36-.24.38-.47.77-.7,1.16S7,8.68,6.79,9.08Zm.52,1.16c.31-.63.63-1.25,1-1.86h0c.35-.6.72-1.2,1.12-1.77.68-.06,1.38-.08,2.09-.08s1.41,0,2.1.08q.59.85,1.11,1.77c.35.6.68,1.22,1,1.84q-.46.94-1,1.86h0c-.35.61-.72,1.2-1.1,1.78-.69.05-1.39.08-2.11.08s-1.41,0-2.08-.07c-.4-.58-.77-1.17-1.13-1.78S7.62,10.87,7.31,10.24Zm8.25,2.33c.23-.4.45-.8.67-1.21h0a20.49,20.49,0,0,1,.77,2,19.28,19.28,0,0,1-2.15.36c.25-.38.48-.77.71-1.17Zm.66-3.49q-.31-.6-.66-1.2h0c-.23-.38-.46-.77-.7-1.15.73.1,1.43.22,2.09.37A20.46,20.46,0,0,1,16.22,9.08ZM11.51,3.94a21,21,0,0,1,1.35,1.64,24.5,24.5,0,0,0-2.71,0A20.78,20.78,0,0,1,11.51,3.94Zm-5.3-2.8C7,.7,8.68,1.33,10.48,2.92l.34.32a25.39,25.39,0,0,0-2,2.43,24.75,24.75,0,0,0-3.07.47c0-.23-.11-.47-.15-.71h0C5.2,3.23,5.49,1.56,6.21,1.14Zm-1.12,12q-.28-.07-.57-.18a8.14,8.14,0,0,1-2.68-1.42A2.06,2.06,0,0,1,1,10.21c0-.84,1.25-1.9,3.33-2.63l.8-.25a22.37,22.37,0,0,0,1.12,2.91A22.33,22.33,0,0,0,5.09,13.18Zm5.33,4.48a8.36,8.36,0,0,1-2.58,1.61h0a2,2,0,0,1-1.61.06c-.73-.41-1-2-.62-4.2,0-.25.11-.51.17-.76a23.15,23.15,0,0,0,3.1.45,24.16,24.16,0,0,0,2,2.44Zm1.12-1.11c-.47-.5-.93-1.06-1.39-1.66q.66,0,1.35,0c.47,0,.93,0,1.39,0a19.55,19.55,0,0,1-1.35,1.66Zm6,1.37a2,2,0,0,1-.75,1.43c-.72.41-2.27-.13-3.94-1.57a7.13,7.13,0,0,1-.58-.53,23.67,23.67,0,0,0,1.92-2.44,23.52,23.52,0,0,0,3.12-.48,5.41,5.41,0,0,1,.12.55h0a8.19,8.19,0,0,1,.11,3ZM18.34,13h0l-.39.12a22.91,22.91,0,0,0-1.16-2.91,24.37,24.37,0,0,0,1.12-2.87c.23.06.46.14.68.21C20.72,8.29,22,9.38,22,10.21s-1.4,2-3.68,2.8Z"/><rect class="cls-2" x="9.17" y="7.91" width="4.66" height="4.66" rx="0.46"/><rect class="cls-2" x="9.17" y="7.91" width="4.66" height="4.66" rx="0.46"/><path class="cls-3" d="M12.06,11.62v.45a.88.88,0,0,0,.26.09,1.66,1.66,0,0,0,.32,0,1.55,1.55,0,0,0,.31,0,.76.76,0,0,0,.26-.11.49.49,0,0,0,.17-.18.54.54,0,0,0,.07-.29.51.51,0,0,0,0-.22.59.59,0,0,0-.1-.17l-.17-.13-.22-.1-.16-.08a.35.35,0,0,1-.12-.07.29.29,0,0,1-.08-.07.17.17,0,0,1,0-.1.11.11,0,0,1,0-.08.13.13,0,0,1,.06-.07l.11,0H13l.12,0,.13,0a.39.39,0,0,1,.11.06v-.43l-.23-.06-.28,0a1.55,1.55,0,0,0-.31,0,.64.64,0,0,0-.25.11.47.47,0,0,0-.18.19.57.57,0,0,0-.06.27.58.58,0,0,0,.11.35.81.81,0,0,0,.36.24l.18.08.14.08a.24.24,0,0,1,.09.08.2.2,0,0,1,0,.11.11.11,0,0,1,0,.08.13.13,0,0,1-.06.07l-.11,0-.15,0a.8.8,0,0,1-.3-.06.76.76,0,0,1-.26-.15Zm-.77-1.13h.58v-.37H10.24v.37h.58v1.67h.47Z"/></g></g></svg>